<?xml version="1.0" encoding="UTF-8"?>
<svg id="Layer_1" data-name="Layer 1" xmlns="http://www.w3.org/2000/svg" xmlns:xlink="http://www.w3.org/1999/xlink" viewBox="0 0 3231.61 2023.97">
  <defs>
    <style>
      .cls-1 {
        fill: #fff;
      }

      .cls-2 {
        clip-path: url(#clippath);
      }

      .cls-3 {
        fill: #b3b3b3;
      }
    </style>
    <clipPath id="clippath">
      <rect class="cls-1" x="212.68" y="210.2" width="2806.24" height="1603.57"/>
    </clipPath>
  </defs>
  <rect class="cls-1" x="212.68" y="210.2" width="2806.24" height="1603.57"/>
  <g class="cls-2">
    <g>
      <path class="cls-3" d="m3231.61,2023.97H0V0h3231.61v2023.97ZM4.18,2019.8h3223.25V4.18H4.18v2015.62Z"/>
      <rect class="cls-3" x="2.09" y="1918.81" width="3227.43" height="4.18"/>
      <rect class="cls-3" x="2.09" y="1817.82" width="3227.43" height="4.18"/>
      <rect class="cls-3" x="2.09" y="1716.83" width="3227.43" height="4.18"/>
      <rect class="cls-3" x="2.09" y="1615.84" width="3227.43" height="4.18"/>
      <rect class="cls-3" x="2.09" y="1514.85" width="3227.43" height="4.18"/>
      <rect class="cls-3" x="2.09" y="1413.86" width="3227.43" height="4.18"/>
      <rect class="cls-3" x="2.09" y="1312.87" width="3227.43" height="4.18"/>
      <rect class="cls-3" x="2.09" y="1211.88" width="3227.43" height="4.18"/>
      <rect class="cls-3" x="2.09" y="1110.89" width="3227.43" height="4.18"/>
      <rect class="cls-3" x="2.09" y="1009.9" width="3227.43" height="4.18"/>
      <rect class="cls-3" x="2.09" y="908.91" width="3227.43" height="4.18"/>
      <rect class="cls-3" x="2.09" y="807.92" width="3227.43" height="4.18"/>
      <rect class="cls-3" x="2.09" y="706.93" width="3227.43" height="4.18"/>
      <rect class="cls-3" x="2.09" y="605.94" width="3227.43" height="4.18"/>
      <rect class="cls-3" x="2.09" y="504.95" width="3227.43" height="4.18"/>
      <rect class="cls-3" x="2.09" y="403.96" width="3227.43" height="4.18"/>
      <rect class="cls-3" x="2.09" y="302.97" width="3227.43" height="4.18"/>
      <rect class="cls-3" x="2.09" y="201.98" width="3227.43" height="4.18"/>
      <rect class="cls-3" x="2.09" y="100.99" width="3227.43" height="4.18"/>
      <rect class="cls-3" x="3129.63" y="2.09" width="4.18" height="2019.8"/>
      <rect class="cls-3" x="3031.83" y="2.09" width="4.18" height="2019.8"/>
      <rect class="cls-3" x="2934.03" y="2.09" width="4.18" height="2019.8"/>
      <rect class="cls-3" x="2836.23" y="2.09" width="4.18" height="2019.8"/>
      <rect class="cls-3" x="2738.42" y="2.09" width="4.18" height="2019.8"/>
      <rect class="cls-3" x="2640.62" y="2.09" width="4.18" height="2019.8"/>
      <rect class="cls-3" x="2542.82" y="2.09" width="4.18" height="2019.8"/>
      <rect class="cls-3" x="2445.02" y="2.09" width="4.18" height="2019.8"/>
      <rect class="cls-3" x="2347.22" y="2.09" width="4.18" height="2019.8"/>
      <rect class="cls-3" x="2249.42" y="2.09" width="4.18" height="2019.8"/>
      <rect class="cls-3" x="2151.62" y="2.09" width="4.18" height="2019.8"/>
      <rect class="cls-3" x="2053.82" y="2.09" width="4.18" height="2019.8"/>
      <rect class="cls-3" x="1956.02" y="2.09" width="4.18" height="2019.8"/>
      <rect class="cls-3" x="1858.22" y="2.09" width="4.18" height="2019.8"/>
      <rect class="cls-3" x="1760.42" y="2.09" width="4.18" height="2019.8"/>
      <rect class="cls-3" x="1662.62" y="2.09" width="4.18" height="2019.8"/>
      <rect class="cls-3" x="1564.81" y="2.09" width="4.18" height="2019.8"/>
      <rect class="cls-3" x="1467.01" y="2.09" width="4.18" height="2019.8"/>
      <rect class="cls-3" x="1369.21" y="2.09" width="4.18" height="2019.8"/>
      <rect class="cls-3" x="1271.41" y="2.09" width="4.18" height="2019.8"/>
      <rect class="cls-3" x="1173.61" y="2.09" width="4.18" height="2019.8"/>
      <rect class="cls-3" x="1075.81" y="2.09" width="4.18" height="2019.8"/>
      <rect class="cls-3" x="978.01" y="2.09" width="4.18" height="2019.8"/>
      <rect class="cls-3" x="880.21" y="2.09" width="4.18" height="2019.8"/>
      <rect class="cls-3" x="782.41" y="2.09" width="4.18" height="2019.8"/>
      <rect class="cls-3" x="684.61" y="2.09" width="4.18" height="2019.8"/>
      <rect class="cls-3" x="586.81" y="2.09" width="4.18" height="2019.8"/>
      <rect class="cls-3" x="489.01" y="2.09" width="4.18" height="2019.8"/>
      <rect class="cls-3" x="391.21" y="2.09" width="4.18" height="2019.8"/>
      <rect class="cls-3" x="293.4" y="2.09" width="4.18" height="2019.8"/>
      <rect class="cls-3" x="195.6" y="2.09" width="4.18" height="2019.8"/>
      <rect class="cls-3" x="97.8" y="2.09" width="4.18" height="2019.8"/>
    </g>
  </g>
</svg>